<?xml version="1.0" encoding="UTF-8"?>
<!-- Generator: Adobe Illustrator 19.0.0, SVG Export Plug-In . SVG Version: 6.00 Build 0)  -->
<svg version="1.1" id="Layer_1" xmlns="http://www.w3.org/2000/svg" xmlns:xlink="http://www.w3.org/1999/xlink" x="0px" y="0px" viewBox="0 0 719.6 333.4" style="enable-background:new 0 0 719.6 333.4;" xml:space="preserve">
<style type="text/css">
	.st0{fill:none;stroke:#231F20;stroke-width:3.2;stroke-linejoin:round;stroke-miterlimit:10;stroke-dasharray:7;}
	.st1{fill:none;stroke:#231F20;stroke-width:3.2;stroke-linejoin:round;}
	.st2{fill:none;stroke:#231F20;stroke-width:3.2;stroke-linejoin:round;stroke-dasharray:7.1162,7.1162;}
	.st3{fill:#BDBEC0;}
	.st4{fill:none;stroke:#231F20;stroke-width:3.2;stroke-linejoin:round;stroke-miterlimit:10;}
	.st5{fill:#F2F2F2;stroke:#231F20;stroke-width:3.2;stroke-linejoin:round;stroke-miterlimit:10;}
	.st6{fill:#D2D3D4;stroke:#231F20;stroke-width:3.2;stroke-linejoin:round;stroke-miterlimit:10;}
	.st7{fill:#FFFFFF;}
	.st8{fill:#A8AAAD;}
	.st9{fill:#4291CE;}
	.st10{fill:#79CADC;}
	.st11{fill:#D2D3D4;}
	.st12{opacity:0.5;}
	.st13{fill:#FFEDDF;}
	.st14{opacity:0.2;fill:#FFFFFF;}
	.st15{fill:#FFFFFF;stroke:#231F20;stroke-width:3.2;stroke-linejoin:round;stroke-miterlimit:10;}
</style>
<g>
	<line class="st0" x1="499.3" y1="94.7" x2="499.3" y2="180.9"/>
	<line class="st0" x1="150.1" y1="122.7" x2="150.1" y2="251"/>
	<g>
		<g>
			<line class="st1" x1="197.5" y1="71" x2="201.4" y2="71"/>
			<line class="st2" x1="209.3" y1="71" x2="474.2" y2="71"/>
			<line class="st1" x1="478.1" y1="71" x2="482" y2="71"/>
		</g>
	</g>
	<g>
		<g>
			<rect x="681.4" y="177.7" class="st3" width="23.7" height="21.6"/>
			<line class="st4" x1="671.7" y1="194.9" x2="636.1" y2="194.9"/>
			<line class="st4" x1="671.7" y1="182" x2="622.1" y2="182"/>
		</g>
		<line class="st4" x1="704.6" y1="199.2" x2="681.3" y2="177.1"/>
	</g>
	<g>
		<rect x="544.5" y="207.8" class="st5" width="157.3" height="41"/>
		<rect x="544.5" y="248.8" class="st6" width="157.3" height="41"/>
		<rect x="544.5" y="289.8" class="st5" width="157.3" height="41"/>
		<circle class="st7" cx="671.7" cy="268.2" r="9.2"/>
		<circle class="st7" cx="642.6" cy="268.2" r="9.2"/>
		<line class="st4" x1="567.2" y1="303.8" x2="680.3" y2="303.8"/>
		<line class="st4" x1="567.2" y1="314.5" x2="680.3" y2="314.5"/>
		<line class="st4" x1="567.2" y1="261.7" x2="567.2" y2="274.7"/>
		<line class="st4" x1="577.9" y1="261.7" x2="577.9" y2="274.7"/>
		<line class="st4" x1="588.7" y1="261.7" x2="588.7" y2="274.7"/>
		<line class="st4" x1="599.5" y1="261.7" x2="599.5" y2="274.7"/>
		<line class="st4" x1="610.3" y1="261.7" x2="610.3" y2="274.7"/>
		<line class="st4" x1="639.4" y1="268.2" x2="645.8" y2="268.2"/>
		<line class="st4" x1="668.5" y1="268.2" x2="674.9" y2="268.2"/>
		<rect x="674.9" y="220.8" class="st8" width="4.3" height="14"/>
		<rect x="664.2" y="220.8" class="st9" width="4.3" height="14"/>
		<rect x="653.4" y="220.8" class="st10" width="4.3" height="14"/>
		<rect x="642.6" y="220.8" class="st9" width="4.3" height="14"/>
		<rect x="631.8" y="220.8" class="st10" width="4.3" height="14"/>
		<line class="st4" x1="559.6" y1="221.9" x2="623.2" y2="221.9"/>
		<line class="st4" x1="559.6" y1="232.6" x2="623.2" y2="232.6"/>
	</g>
	<g>
		<polygon class="st4" points="567.2,122.7 567.2,88.2 553.2,88.2 553.2,122.7 528.4,122.7 528.4,135.6 592,135.6 592,122.7   "/>
		<line class="st4" x1="553.2" y1="122.7" x2="559.6" y2="122.7"/>
		<line class="st4" x1="592" y1="129.2" x2="607" y2="129.2"/>
		<line class="st4" x1="513.3" y1="129.2" x2="528.4" y2="129.2"/>
	</g>
	<g>
		<path class="st7" d="M254.2,95.2c-9.2,0-17.7,2.8-24.7,7.6c-4.8-5.4-11.3-9.2-18.7-10.5c0.3-2.1,0.5-4.2,0.5-6.4    c0-24-19.5-43.5-43.5-43.5c-24,0-43.5,19.5-43.5,43.5c0,3.5,0.4,7,1.2,10.3c-3.2-0.8-6.6-1.1-10-1.1c-24,0-43.5,18.8-43.5,43.6    h225.8C297.7,114.1,278.3,95.2,254.2,95.2z"/>
		<path class="st6" d="M72.6,138.7"/>
		<path class="st6" d="M125.5,96.3c0,0,5.3,4.3,7.1,5.2"/>
		<path class="st6" d="M229.5,102.8c0,0-2.4,4.1-2.5,7.3"/>
	</g>
	<g>
		<rect x="309.6" y="274.7" class="st11" width="61.4" height="41"/>
		<g>
			<path class="st11" d="M482,99c0-8.5-6.3-16.2-15.2-16.2H213c-8.9,0-16.6,7.7-16.6,16.2v127.1H482V99z"/>
			<path class="st5" d="M196.4,226.2v34c0,8.5,7.7,14.5,16.6,14.5h253.8c8.9,0,15.2-6,15.2-14.5v-34H196.4z"/>
		</g>
		<path class="st3" d="M349.9,250.5c0,5.5-4.5,10-10,10c-5.5,0-10-4.5-10-10c0-5.5,4.5-10,10-10C345.4,240.6,349.9,245,349.9,250.5z    "/>
		<rect x="297.7" y="315.6" class="st5" width="83" height="10.8"/>
		<rect x="214.8" y="100.1" class="st10" width="250" height="126.1"/>
		<g class="st12">
			<rect x="232" y="116.2" class="st13" width="216.6" height="33.4"/>
			<rect x="325.8" y="158.3" class="st13" width="49.6" height="26.9"/>
			<rect x="233.1" y="158.3" class="st13" width="79.8" height="26.9"/>
			<rect x="389.3" y="158.3" class="st13" width="58.2" height="26.9"/>
			<rect x="232" y="193.8" class="st13" width="215.5" height="19.5"/>
		</g>
	</g>
	<g>
		<path class="st11" d="M603.8,162c0-5.7-4.3-10.2-10.1-10.2H391.5c-5.7,0-10.8,4.5-10.8,10.2v148.2h223.1V162z"/>
		<path class="st5" d="M364.6,310.2v10.3c0,5.7,5,10.2,11.6,10.2H609c6.6,0,12-4.5,12-10.2v-10.3H364.6z"/>
		<rect x="396.9" y="164.7" class="st9" width="191.8" height="129.3"/>
		<line class="st4" x1="479.9" y1="321" x2="504.7" y2="321"/>
		<rect x="556.4" y="176.6" class="st14" width="21.6" height="34.5"/>
		<rect x="409.8" y="176.6" class="st14" width="140.1" height="34.5"/>
		<rect x="409.8" y="221.9" class="st14" width="37.7" height="30.2"/>
		<rect x="455.1" y="221.9" class="st14" width="121.8" height="30.2"/>
		<rect x="409.8" y="261.7" class="st14" width="167" height="17.2"/>
	</g>
	<g>
		<rect x="111.3" y="208.9" class="st5" width="157.3" height="41"/>
		<rect x="111.3" y="249.9" class="st6" width="157.3" height="41"/>
		<rect x="111.3" y="290.8" class="st5" width="157.3" height="41"/>
		<circle class="st7" cx="238.5" cy="269.3" r="9.2"/>
		<circle class="st7" cx="209.4" cy="269.3" r="9.2"/>
		<line class="st4" x1="133.9" y1="304.8" x2="247.1" y2="304.8"/>
		<line class="st4" x1="133.9" y1="315.6" x2="247.1" y2="315.6"/>
		<line class="st4" x1="133.9" y1="262.8" x2="133.9" y2="275.7"/>
		<line class="st4" x1="144.7" y1="262.8" x2="144.7" y2="275.7"/>
		<line class="st4" x1="155.5" y1="262.8" x2="155.5" y2="275.7"/>
		<line class="st4" x1="166.3" y1="262.8" x2="166.3" y2="275.7"/>
		<line class="st4" x1="177" y1="262.8" x2="177" y2="275.7"/>
		<line class="st4" x1="206.1" y1="269.3" x2="212.6" y2="269.3"/>
		<line class="st4" x1="235.2" y1="269.3" x2="241.7" y2="269.3"/>
		<rect x="241.7" y="221.9" class="st8" width="4.3" height="14"/>
		<rect x="230.9" y="221.9" class="st9" width="4.3" height="14"/>
		<rect x="220.1" y="221.9" class="st10" width="4.3" height="14"/>
		<rect x="209.4" y="221.9" class="st9" width="4.3" height="14"/>
		<rect x="198.6" y="221.9" class="st10" width="4.3" height="14"/>
		<line class="st4" x1="126.4" y1="222.9" x2="190" y2="222.9"/>
		<line class="st4" x1="126.4" y1="233.7" x2="190" y2="233.7"/>
	</g>
	<g>
		<path class="st10" d="M73.6,278.7c-11.5,0-20.8,9.3-20.8,20.8c0,6.3,2.8,11.9,7.2,15.7c2.4-2.4,6.3-4.2,8.2-5.1    c1.7-0.8,2.3-2.1,2.4-3.1c-2.1-1.5-3.5-3.9-3.5-5.7v-8.8c0,0-0.8-7.3,6.5-7.3c7.3,0,6.5,7.3,6.5,7.3v8.8c0,1.9-1,4.3-3.1,5.7    c0.2,0.9,0.9,2.3,2.7,3.1c1.8,0.8,5.5,2.5,7.9,4.7c4.2-3.8,6.8-9.3,6.8-15.4C94.4,288,85.1,278.7,73.6,278.7z"/>
		<path class="st4" d="M77.9,307C77.9,307,77.9,307,77.9,307c0,0-0.7,0-0.7,0c2.1-1.5,2.8-3.9,2.8-5.7v-8.8c0,0,0.8-7.3-6.5-7.3    c-7.3,0-6.5,7.3-6.5,7.3v8.8c0,1.9,1.4,4.3,3.5,5.7c0,0,0,0,0,0c0,0,0,0,0,0c-0.2,0.9-0.7,2.3-2.4,3.1c-1.9,0.8-5.8,2.6-8.2,5.1    c3.7,3.2,8.4,5.1,13.6,5.1c5.4,0,10.3-2.1,14-5.4c-2.4-2.2-5.8-3.9-7.6-4.7C78.3,309.3,77.9,308,77.9,307z"/>
	</g>
	<g>
		<path class="st9" d="M185.2,133.2c-14.2,0-25.6,11.5-25.6,25.6c0,7.7,3.4,14.6,8.8,19.3c3-3,7.8-5.2,10.1-6.2c2.1-1,2.8-2.6,3-3.8    c-2.5-1.8-4.4-4.8-4.4-7.1v-10.8c0,0-0.9-9,8.1-9c9,0,8.1,9,8.1,9v10.8c0,2.3-1.3,5.3-3.8,7.1c0.2,1.1,1.1,2.8,3.2,3.8    c2.2,1,6.8,3.1,9.8,5.8c5.1-4.7,8.4-11.4,8.4-18.9C210.8,144.7,199.4,133.2,185.2,133.2z"/>
		<path class="st4" d="M189.8,168.2C189.8,168.2,189.8,168.1,189.8,168.2c0,0-0.5,0-0.5,0c2.5-1.8,3.8-4.8,3.8-7.1v-10.8    c0,0,0.9-9-8.1-9c-9,0-8.1,9-8.1,9v10.8c0,2.3,1.8,5.3,4.4,7.1c0,0,0,0,0,0c0,0,0,0,0,0c-0.2,1.1-0.8,2.8-3,3.8    c-2.3,1-7.1,3.3-10.1,6.2c4.5,3.9,10.4,6.3,16.8,6.3c6.7,0,12.7-2.5,17.3-6.7c-3-2.8-7.5-4.8-9.7-5.8    C190.7,171,190,169.3,189.8,168.2z"/>
	</g>
	<g>
		<path class="st10" d="M177.5,32.6c-11.9,0-21.5,9.6-21.5,21.5c0,6.5,2.9,12.3,7.4,16.2c2.5-2.5,6.5-4.4,8.5-5.2    c1.8-0.8,2.3-2.2,2.5-3.2c-2.1-1.5-3.7-4-3.7-5.9v-9.1c0,0-0.5-7.5,7-7.5c7.5,0,7,7.5,7,7.5V56c0,1.9-1.3,4.4-3.4,5.9    c0.2,1,0.8,2.4,2.6,3.2c1.8,0.8,5.6,2.6,8.2,4.9c4.3-3.9,7-9.6,7-15.9C199,42.2,189.3,32.6,177.5,32.6z"/>
		<path class="st4" d="M181.4,61.9C181.4,61.9,181.4,61.9,181.4,61.9c0,0-0.2,0-0.2,0c2.1-1.5,3.4-4,3.4-5.9v-9.1c0,0,0.5-7.5-7-7.5    c-7.5,0-7,7.5-7,7.5V56c0,1.9,1.6,4.4,3.7,5.9c0,0,0,0,0,0c0,0,0,0,0,0c-0.2,1-0.7,2.4-2.5,3.2c-1.9,0.9-6,2.7-8.5,5.2    c3.8,3.3,8.7,5.3,14.1,5.3c5.6,0,10.7-2.1,14.5-5.6c-2.5-2.3-6.3-4.1-8.1-4.9C182.1,64.3,181.5,62.9,181.4,61.9z"/>
	</g>
	<g>
		<rect x="39.1" y="53.7" class="st15" width="77.6" height="61.4"/>
		<rect x="45.5" y="60.2" class="st11" width="63.6" height="47.4"/>
		<polyline class="st4" points="45.2,91.7 71.6,78 97.5,92.9   "/>
		<polyline class="st4" points="86.4,86.5 96,78 109.2,86.5   "/>
		<circle class="st7" cx="83" cy="69.6" r="6"/>
	</g>
	<g>
		<polyline class="st4" points="55.2,135.6 133.9,135.6 133.9,186.3   "/>
		<polygon class="st11" points="127.5,142.1 43.4,142.1 43.4,197.1 87.6,197.1 87.6,217.5 108.1,197.1 127.5,197.1   "/>
		<polygon class="st9" points="32.6,182 77.9,182 77.9,212.2 55.2,212.2 55.2,222.8 43.1,212.2 32.6,212.2   "/>
		<line class="st4" x1="54.2" y1="165.8" x2="117.8" y2="165.8"/>
		<line class="st4" x1="54.2" y1="154" x2="117.8" y2="154"/>
		<line class="st4" x1="54.2" y1="176.6" x2="117.8" y2="176.6"/>
		<line class="st4" x1="54.2" y1="190.6" x2="70.3" y2="190.6"/>
		<line class="st4" x1="77.9" y1="187.4" x2="94" y2="187.4"/>
		<line class="st4" x1="101.6" y1="187.4" x2="117.8" y2="187.4"/>
		<line class="st4" x1="70.3" y1="201.4" x2="39.1" y2="201.4"/>
	</g>
	<g>
		<polyline class="st4" points="585.5,107.6 664.2,107.6 664.2,158.3   "/>
		<polygon class="st9" points="657.7,114.1 573.6,114.1 573.6,169 617.8,169 617.8,189.5 638.3,169 657.7,169   "/>
		<polygon class="st10" points="562.9,154 608.1,154 608.1,184.1 585.5,184.1 585.5,194.8 573.4,184.1 562.9,184.1   "/>
		<line class="st4" x1="584.4" y1="137.8" x2="648" y2="137.8"/>
		<line class="st4" x1="584.4" y1="125.9" x2="648" y2="125.9"/>
		<line class="st4" x1="584.4" y1="148.6" x2="648" y2="148.6"/>
		<line class="st4" x1="584.4" y1="162.6" x2="600.6" y2="162.6"/>
		<line class="st4" x1="608.1" y1="159.3" x2="624.3" y2="159.3"/>
		<line class="st4" x1="631.8" y1="159.3" x2="648" y2="159.3"/>
		<line class="st4" x1="600.6" y1="173.4" x2="569.3" y2="173.4"/>
	</g>
	<g>
		<g>
			<rect x="499.3" y="21.4" class="st4" width="29.1" height="26.9"/>
			<line class="st4" x1="486.3" y1="43" x2="396.9" y2="43"/>
			<line class="st4" x1="486.3" y1="26.8" x2="442.2" y2="26.8"/>
		</g>
		<line class="st4" x1="528.2" y1="48.5" x2="499.1" y2="20.9"/>
	</g>
	<g>
		<g>
			<g>
				<rect x="234.2" y="25.7" class="st4" width="29.1" height="26.9"/>
				<line class="st4" x1="276.2" y1="31.1" x2="320.4" y2="31.1"/>
				<line class="st4" x1="276.2" y1="47.3" x2="337.6" y2="47.3"/>
			</g>
			<line class="st4" x1="234.3" y1="25.2" x2="263.5" y2="52.9"/>
		</g>
		<line class="st4" x1="325.8" y1="31.1" x2="337.6" y2="31.1"/>
	</g>
	<g>
		<g>
			<rect x="6.8" y="241.3" class="st8" width="23.7" height="21.6"/>
			<line class="st4" x1="40.2" y1="245.6" x2="83.3" y2="245.6"/>
			<line class="st4" x1="40.2" y1="258.5" x2="100.5" y2="258.5"/>
		</g>
		<line class="st4" x1="7.2" y1="241.8" x2="30.4" y2="263.9"/>
	</g>
	<g>
		<line class="st4" x1="364.3" y1="42.9" x2="375.7" y2="54.2"/>
		<line class="st4" x1="364.3" y1="54.2" x2="375.7" y2="42.9"/>
	</g>
	<g>
		<line class="st4" x1="1.1" y1="152.8" x2="12.5" y2="164.2"/>
		<line class="st4" x1="1.1" y1="164.2" x2="12.5" y2="152.8"/>
	</g>
	<g>
		<line class="st4" x1="127.2" y1="14.8" x2="138.6" y2="26.2"/>
		<line class="st4" x1="127.2" y1="26.2" x2="138.6" y2="14.8"/>
	</g>
	<g id="XMLID_15_">
		<line id="XMLID_17_" class="st4" x1="607.8" y1="48.8" x2="619.2" y2="60.2"/>
		<line id="XMLID_16_" class="st4" x1="607.8" y1="60.2" x2="619.2" y2="48.8"/>
	</g>
	<g>
		<line class="st4" x1="707" y1="130.2" x2="718.4" y2="141.5"/>
		<line class="st4" x1="707" y1="141.5" x2="718.4" y2="130.2"/>
	</g>
	<rect x="196.4" y="201.4" class="st3" width="16.2" height="5.4"/>
	<rect x="466.9" y="146.4" class="st3" width="15.1" height="5.4"/>
</g>
</svg>